<svg width="24" height="24" fill="none" stroke="currentColor" stroke-width="2" viewBox="0 0 24 24">
  <circle cx="12" cy="12" r="3"/>
  <path d="M19.4 15a1.65 1.65 0 0 0 .33 1.82l.06.06a2 2 0 0 1-2.83 2.83l-.06-.06a1.65 1.65 0 0 0-1.82-.33 1.65 1.65 0 0 0-1 1.51v.17A2 2 0 0 1 8 22a2 2 0 0 1-2-2v-.17a1.65 1.65 0 0 0-1-1.51 1.65 1.65 0 0 0-1.82.33l-.06.06A2 2 0 0 1 2.34 15.9l.06-.06a1.65 1.65 0 0 0 .33-1.82 1.65 1.65 0 0 0-1.51-1H2a2 2 0 0 1-2-2 2 2 0 0 1 2-2h.17a1.65 1.65 0 0 0 1.51-1 1.65 1.65 0 0 0-.33-1.82l-.06-.06A2 2 0 0 1 4.1 2.34l.06.06a1.65 1.65 0 0 0 1.82.33h.17A1.65 1.65 0 0 0 8 2.1V2A2 2 0 0 1 12 0a2 2 0 0 1 2 2v.17a1.65 1.65 0 0 0 1 1.51 1.65 1.65 0 0 0 1.82-.33l.06-.06A2 2 0 0 1 21.66 8.1l-.06.06a1.65 1.65 0 0 0-.33 1.82v.17A1.65 1.65 0 0 0 22 12a2 2 0 0 1-2 2h-.17a1.65 1.65 0 0 0-1.51 1z"/>
</svg>